<svg width="229" height="78" viewBox="0 0 229 78" fill="none" xmlns="http://www.w3.org/2000/svg">
<g clip-path="url(#clip0)">
<path d="M99.4888 72.414H107.404V63.8136H99.4888V72.414ZM100.98 65.1209H105.915V71.1152H100.98V65.1209Z" fill="#333333"/>
<path d="M87.0627 72.414H94.3707V71.1124H88.557V65.1152H94.3707V63.8136H87.0627V72.414Z" fill="#333333"/>
<path d="M176.96 72.414H184.268V71.1124H178.454V65.1152H184.268V63.8136H176.96V72.414Z" fill="#333333"/>
<path d="M112.762 72.414H114.254V65.1152H119.048V72.414H120.542V63.8136H112.762V72.414Z" fill="#333333"/>
<path d="M207.946 72.414H215.864V63.8136H207.946V72.414ZM209.44 65.1209H214.372V71.1152H209.44V65.1209Z" fill="#333333"/>
<path d="M221.219 63.8136V72.414H222.713V65.1152H227.505V72.414H228.999V63.8136H221.219Z" fill="#333333"/>
<path d="M170.17 71.1124H165.375V63.8136H163.884V72.414H171.664V63.8136H170.17V71.1124Z" fill="#333333"/>
<path d="M125.595 68.7632H131.927V71.1124H125.595V72.414H133.421V67.4644H127.086V65.1152H133.421V63.8136H125.595V68.7632Z" fill="#333333"/>
<path d="M138.093 65.1152H141.196V72.414H142.69V65.1152H145.793V63.8136H138.093V65.1152Z" fill="#333333"/>
<path d="M188.748 65.1152H191.85V72.414H193.345V65.1152H196.448V63.8136H188.748V65.1152Z" fill="#333333"/>
<path d="M202.61 63.8136H201.116V72.3969H202.61V63.8136Z" fill="#333333"/>
<path d="M158.502 69.0372V63.8136H150.676V72.3969H152.17V69.0372H155.342L157.174 72.414H158.846L157.014 69.0372H158.502ZM152.17 65.1209H157.008V67.7441H152.17V65.1209Z" fill="#333333"/>
<path d="M155.972 54.4565H124.917V23.5431H155.972V54.4565ZM130.859 48.5336H150.038V29.466H130.859V48.5336Z" fill="#333333"/>
<path d="M118.115 54.4565H87.1973V48.5336H112.175V41.9598H87.0627V23.5431H117.983V29.466H93.0024V36.0369H118.115V54.4565Z" fill="#333333"/>
<path d="M229.003 54.4565H197.945V36.0369H223.057V29.4717H198.088V23.5431H229.003V54.4565ZM203.89 48.5336H223.069V41.9684H203.89V48.5336Z" fill="#333333"/>
<path d="M191.868 23.5431H162.049V29.466H173.988V54.4565H179.928V29.466H191.868V23.5431Z" fill="#333333"/>
<path d="M39.6546 39.0342L37.0182 11.7316L30.4717 2.14075L25.697 4.86672L39.6546 39.0342Z" fill="#333333"/>
<path d="M38.91 13.1306L42.4108 18.2628L44.1054 5.61489L37.8423 2.05542L38.91 13.1306Z" fill="#333333"/>
<path d="M47.778 26.1235L47.8009 7.71242L44.8754 6.05115L43.1035 19.2757L47.778 26.1235Z" fill="#333333"/>
<path d="M42.9491 20.4233L41.0112 34.8953L44.6037 72.117L47.7267 70.3358L47.7753 27.4937L42.9491 20.4233Z" fill="#333333"/>
<path d="M36.866 10.1332L35.9844 0.999049L34.2239 0L31.1467 1.75547L36.866 10.1332Z" fill="#333333"/>
<path d="M42.2592 19.41L39.0647 14.7288L40.6648 31.3044L42.2592 19.41Z" fill="#333333"/>
<path d="M63.2243 16.4758L62.1509 15.8678L52.1293 37.2189L52.092 67.844L58.0117 64.4672L63.2243 16.4758Z" fill="#333333"/>
<path d="M63.9566 16.8926L58.8413 63.9934L68.5223 58.4673L68.4851 19.4673L63.9566 16.8926Z" fill="#333333"/>
<path d="M39.929 41.8686L24.9782 5.27771L0 19.5327L0.0372125 58.5327L34.2985 77.9999L42.9404 73.0674L39.929 41.8686Z" fill="#333333"/>
<path d="M52.1348 32.2327L60.3072 14.8207L52.1605 10.1908L52.1348 32.2327Z" fill="#333333"/>
</g>
<defs>
<clipPath id="clip0">
<rect width="229" height="78" fill="white"/>
</clipPath>
</defs>
</svg>
