<svg width="203" height="70" viewBox="0 0 203 70" fill="none" xmlns="http://www.w3.org/2000/svg">
<g clip-path="url(#clip0)">
<path d="M87.9141 64.5262H94.908V56.9431H87.9141V64.5262ZM89.2319 58.0958H93.5926V63.3811H89.2319V58.0958Z" fill="#333333"/>
<path d="M76.9336 64.5262H83.3912V63.3786H78.254V58.0908H83.3912V56.9431H76.9336V64.5262Z" fill="#333333"/>
<path d="M156.371 64.5262H162.829V63.3786H157.691V58.0908H162.829V56.9431H156.371V64.5262Z" fill="#333333"/>
<path d="M99.6426 64.5262H100.96V58.0908H105.197V64.5262H106.518V56.9431H99.6426V64.5262Z" fill="#333333"/>
<path d="M183.752 64.5262H190.748V56.9431H183.752V64.5262ZM185.072 58.0958H189.431V63.3811H185.072V58.0958Z" fill="#333333"/>
<path d="M195.48 56.9431V64.5262H196.801V58.0908H201.035V64.5262H202.355V56.9431H195.48Z" fill="#333333"/>
<path d="M150.371 63.3786H146.134V56.9431H144.816V64.5262H151.691V56.9431H150.371V63.3786Z" fill="#333333"/>
<path d="M110.982 61.3073H116.578V63.3786H110.982V64.5262H117.898V60.1621H112.3V58.0908H117.898V56.9431H110.982V61.3073Z" fill="#333333"/>
<path d="M122.025 58.0908H124.767V64.5262H126.088V58.0908H128.83V56.9431H122.025V58.0908Z" fill="#333333"/>
<path d="M166.787 58.0908H169.529V64.5262H170.849V58.0908H173.591V56.9431H166.787V58.0908Z" fill="#333333"/>
<path d="M179.037 56.9431H177.717V64.5111H179.037V56.9431Z" fill="#333333"/>
<path d="M140.06 61.5489V56.9431H133.145V64.5111H134.465V61.5489H137.268L138.886 64.5262H140.364L138.745 61.5489H140.06ZM134.465 58.0958H138.74V60.4088H134.465V58.0958Z" fill="#333333"/>
<path d="M137.825 48.693H110.383V21.436H137.825V48.693ZM115.634 43.4706H132.581V26.6584H115.634V43.4706Z" fill="#333333"/>
<path d="M104.373 48.693H77.0525V43.4707H99.1243V37.6745H76.9336V21.436H104.257V26.6584H82.1822V32.4521H104.373V48.693Z" fill="#333333"/>
<path d="M202.358 48.693H174.914V32.4521H197.105V26.6634H175.041V21.436H202.358V48.693ZM180.168 43.4706H197.115V37.682H180.168V43.4706Z" fill="#333333"/>
<path d="M169.544 21.436H143.195V26.6584H153.746V48.693H158.994V26.6584H169.544V21.436Z" fill="#333333"/>
<path d="M35.0406 35.0949L32.711 11.0216L26.9261 2.56519L22.707 4.96873L35.0406 35.0949Z" fill="#333333"/>
<path d="M34.3829 12.2547L37.4764 16.7799L38.9739 5.62796L33.4395 2.4895L34.3829 12.2547Z" fill="#333333"/>
<path d="M42.2185 23.7113L42.2387 7.47796L39.6536 6.01318L38.0879 17.6735L42.2185 23.7113Z" fill="#333333"/>
<path d="M37.9507 18.6853L36.2383 31.4455L39.4127 64.2646L42.1723 62.6941L42.2153 24.9194L37.9507 18.6853Z" fill="#333333"/>
<path d="M32.5773 9.61214L31.7982 1.55837L30.2426 0.67749L27.5234 2.22532L32.5773 9.61214Z" fill="#333333"/>
<path d="M37.3424 17.7916L34.5195 13.6641L35.9335 28.2791L37.3424 17.7916Z" fill="#333333"/>
<path d="M55.8682 15.2045L54.9197 14.6685L46.0641 33.4942L46.0312 60.4969L51.2621 57.5196L55.8682 15.2045Z" fill="#333333"/>
<path d="M56.5142 15.572L51.9941 57.1018L60.5487 52.2293L60.5158 17.8422L56.5142 15.572Z" fill="#333333"/>
<path d="M35.2831 37.594L22.0719 5.33105L0 17.9L0.0328827 52.2871L30.3077 69.4517L37.9441 65.1027L35.2831 37.594Z" fill="#333333"/>
<path d="M46.0684 29.0974L53.2899 13.7449L46.0911 9.6626L46.0684 29.0974Z" fill="#333333"/>
</g>
<defs>
<clipPath id="clip0">
<rect width="202.355" height="68.7742" fill="white" transform="translate(0 0.67749)"/>
</clipPath>
</defs>
</svg>
