<svg width="287" height="149" viewBox="0 0 287 149" fill="none" xmlns="http://www.w3.org/2000/svg">
<g filter="url(#filter0_b)">
<path d="M0 0H287V144.129C287 146.338 285.209 148.129 283 148.129H4C1.79086 148.129 0 146.338 0 144.129V0Z" fill="white"/>
</g>
<g clip-path="url(#clip0)">
<path d="M129.913 103.526H136.907V95.9431H129.913V103.526ZM131.231 97.0958H135.592V102.381H131.231V97.0958Z" fill="#333333"/>
<path d="M118.933 103.526H125.39V102.379H120.253V97.0908H125.39V95.9431H118.933V103.526Z" fill="#333333"/>
<path d="M198.37 103.526H204.827V102.379H199.69V97.0908H204.827V95.9431H198.37V103.526Z" fill="#333333"/>
<path d="M141.642 103.526H142.96V97.0908H147.197V103.526H148.517V95.9431H141.642V103.526Z" fill="#333333"/>
<path d="M225.751 103.526H232.747V95.9431H225.751V103.526ZM227.071 97.0958H231.43V102.381H227.071V97.0958Z" fill="#333333"/>
<path d="M237.479 95.9431V103.526H238.8V97.0908H243.034V103.526H244.354V95.9431H237.479Z" fill="#333333"/>
<path d="M192.37 102.379H188.133V95.9431H186.815V103.526H193.69V95.9431H192.37V102.379Z" fill="#333333"/>
<path d="M152.982 100.307H158.577V102.379H152.982V103.526H159.897V99.1621H154.3V97.0908H159.897V95.9431H152.982V100.307Z" fill="#333333"/>
<path d="M164.025 97.0908H166.767V103.526H168.087V97.0908H170.829V95.9431H164.025V97.0908Z" fill="#333333"/>
<path d="M208.786 97.0908H211.528V103.526H212.848V97.0908H215.59V95.9431H208.786V97.0908Z" fill="#333333"/>
<path d="M221.036 95.9431H219.715V103.511H221.036V95.9431Z" fill="#333333"/>
<path d="M182.06 100.549V95.9431H175.145V103.511H176.465V100.549H179.268L180.886 103.526H182.364L180.745 100.549H182.06ZM176.465 97.0958H180.74V99.4088H176.465V97.0958Z" fill="#333333"/>
<path d="M179.824 87.693H152.383V60.436H179.824V87.693ZM157.634 82.4706H174.581V65.6584H157.634V82.4706Z" fill="#333333"/>
<path d="M146.372 87.693H119.052V82.4707H141.124V76.6745H118.933V60.436H146.256V65.6584H124.181V71.4521H146.372V87.693Z" fill="#333333"/>
<path d="M244.357 87.693H216.913V71.4521H239.103V65.6634H217.039V60.436H244.357V87.693ZM222.166 82.4706H239.113V76.682H222.166V82.4706Z" fill="#333333"/>
<path d="M211.543 60.436H185.194V65.6584H195.744V87.693H200.993V65.6584H211.543V60.436Z" fill="#333333"/>
<path d="M77.0403 74.0949L74.7107 50.0216L68.9259 41.5652L64.7068 43.9687L77.0403 74.0949Z" fill="#333333"/>
<path d="M76.3827 51.2547L79.4762 55.7799L80.9736 44.628L75.4392 41.4895L76.3827 51.2547Z" fill="#333333"/>
<path d="M84.2187 62.7113L84.2389 46.478L81.6539 45.0132L80.0881 56.6735L84.2187 62.7113Z" fill="#333333"/>
<path d="M79.9514 57.6853L78.239 70.4455L81.4135 103.265L84.1731 101.694L84.2161 63.9194L79.9514 57.6853Z" fill="#333333"/>
<path d="M74.5765 48.6121L73.7975 40.5584L72.2418 39.6775L69.5227 41.2253L74.5765 48.6121Z" fill="#333333"/>
<path d="M79.3419 56.7916L76.519 52.6641L77.933 67.2791L79.3419 56.7916Z" fill="#333333"/>
<path d="M97.8675 54.2045L96.919 53.6685L88.0634 72.4942L88.0305 99.4969L93.2614 96.5196L97.8675 54.2045Z" fill="#333333"/>
<path d="M98.515 54.572L93.9949 96.1018L102.549 91.2293L102.517 56.8422L98.515 54.572Z" fill="#333333"/>
<path d="M77.2831 76.594L64.0719 44.3311L42 56.9L42.0329 91.2871L72.3077 108.452L79.9441 104.103L77.2831 76.594Z" fill="#333333"/>
<path d="M88.0684 68.0974L95.2899 52.7449L88.0911 48.6626L88.0684 68.0974Z" fill="#333333"/>
</g>
<defs>
<filter id="filter0_b" x="-4" y="-4" width="295" height="156.129" filterUnits="userSpaceOnUse" color-interpolation-filters="sRGB">
<feFlood flood-opacity="0" result="BackgroundImageFix"/>
<feGaussianBlur in="BackgroundImage" stdDeviation="2"/>
<feComposite in2="SourceAlpha" operator="in" result="effect1_backgroundBlur"/>
<feBlend mode="normal" in="SourceGraphic" in2="effect1_backgroundBlur" result="shape"/>
</filter>
<clipPath id="clip0">
<rect width="202.355" height="68.7742" fill="white" transform="translate(42 39.6775)"/>
</clipPath>
</defs>
</svg>
