<svg width="98" height="41" viewBox="0 0 98 41" fill="none" xmlns="http://www.w3.org/2000/svg">
<path d="M18.2704 25.1114C18.0904 26.0869 17.9104 26.9737 17.5504 27.9491C17.2804 28.8359 16.8304 29.7227 16.3804 30.6095C15.9304 31.4076 15.3904 32.2057 14.7604 32.8265C14.2204 33.3586 13.5004 33.8906 12.7804 34.2453C12.0604 34.6001 11.2504 34.7774 10.3504 34.7774C9.36039 34.7774 8.55039 34.4227 8.01039 33.802C7.47039 33.1812 7.20039 32.2944 7.20039 31.1416C7.20039 30.8755 7.20039 30.6095 7.20039 30.3435C7.20039 30.0774 7.29039 29.634 7.38039 29.102L8.28039 24.5793C8.55039 23.3378 8.91039 22.3623 9.36039 21.4755C9.81039 20.5887 10.3504 19.8793 10.9804 19.3472C11.6104 18.8152 12.2404 18.3718 12.8704 18.1057C13.5004 17.8397 14.1304 17.751 14.7604 17.751C15.3904 17.751 15.9304 17.8397 16.3804 18.1057C16.8304 18.3718 17.1904 18.6378 17.4604 19.0812C17.7304 19.5246 17.9104 19.968 18.0904 20.5001C18.1804 21.0321 18.2704 21.6529 18.2704 22.2736C18.4504 23.2491 18.3604 24.1359 18.2704 25.1114ZM22.4104 15.002C21.6904 14.2038 20.7904 13.6718 19.8004 13.2284C18.8104 12.8736 17.7304 12.6076 16.6504 12.6076C15.9304 12.6076 15.2104 12.6963 14.5804 12.8736C13.9504 13.051 13.3204 13.317 12.7804 13.5831C12.2404 13.8491 11.7004 14.2038 11.2504 14.5586C10.8004 14.9133 10.4404 15.268 10.0804 15.6227H9.99039C10.3504 14.3812 10.6204 13.051 10.9804 11.7208L13.3204 0.369873H7.20039L1.35039 28.3925C1.17039 29.1906 1.08039 29.8114 0.990391 30.3435C0.900391 30.8755 0.900391 31.3189 0.900391 31.7623C0.900391 32.9152 1.08039 33.9793 1.53039 35.0435C1.89039 36.0189 2.52039 36.9057 3.24039 37.7038C3.96039 38.502 4.95039 39.034 6.03039 39.4774C7.11039 39.9208 8.37039 40.0982 9.72039 40.0982C11.5204 40.0982 13.0504 39.8321 14.4904 39.3001C15.9304 38.768 17.1904 38.0586 18.2704 37.1718C19.3504 36.285 20.3404 35.2208 21.1504 34.068C21.9604 32.9152 22.6804 31.585 23.1304 30.2548C23.6704 28.9246 24.0304 27.5057 24.3004 26.0869C24.5704 24.668 24.6604 23.3378 24.6604 22.0076C24.6604 20.5001 24.4804 19.0812 24.0304 17.9284C23.7604 16.7755 23.1304 15.8001 22.4104 15.002Z" fill="#333333"/>
<path d="M43.2915 29.1019C43.1115 29.9887 42.8415 30.7868 42.5715 31.4963C42.3015 32.2057 41.9415 32.8264 41.4015 33.2698C40.9515 33.8019 40.4115 34.1566 39.6915 34.4227C39.0615 34.6887 38.2515 34.7774 37.3515 34.7774C36.0015 34.7774 35.1015 34.5113 34.4715 33.8906C33.9315 33.2698 33.5715 32.4717 33.5715 31.3189C33.5715 31.0529 33.5715 30.6981 33.6615 30.3434C33.6615 29.9887 33.7515 29.5453 33.8415 29.1019L37.0815 13.2283H30.7815L27.6315 28.9246C27.4515 29.7227 27.3615 30.3434 27.3615 30.7868C27.2715 31.2302 27.2715 31.6736 27.2715 32.117C27.2715 33.2698 27.4515 34.334 27.8115 35.3095C28.1715 36.2849 28.7115 37.1717 29.5215 37.7925C30.3315 38.5019 31.3215 39.034 32.4915 39.3887C33.6615 39.7434 35.1915 40.0095 36.9015 40.0095C38.9715 40.0095 40.7715 39.7434 42.2115 39.2113C43.6515 38.6793 44.9115 38.0585 45.8115 37.1717C46.8015 36.2849 47.5215 35.3095 48.0615 34.2453C48.6015 33.1812 48.9615 32.0283 49.2315 30.7868L52.8315 13.1396H46.5315L43.2915 29.1019Z" fill="#333333"/>
<path d="M73.7096 12.785C72.9896 12.6963 72.3596 12.6077 71.6396 12.6077C69.9296 12.6077 68.4896 12.9624 67.3196 13.6718C66.0596 14.3812 64.9796 15.3567 63.8996 16.5982H63.8096V13.3171H58.4996L53.0996 39.3888H59.3996L62.0996 26.2643C62.2796 25.2888 62.4596 24.5794 62.6396 24.0473C62.8196 23.5152 62.9996 23.0718 63.1796 22.6284C63.6296 21.8303 64.0796 21.2096 64.6196 20.6775C65.1596 20.1454 65.7896 19.702 66.4196 19.436C67.0496 19.0812 67.6796 18.9039 68.3096 18.7265C68.9396 18.5492 69.5696 18.5492 70.2896 18.5492C71.0096 18.5492 71.7296 18.6379 72.5396 18.8152L73.7096 12.785Z" fill="#333333"/>
<path d="M90.1817 25.3775C90.0017 26.3529 89.8217 27.2397 89.5517 28.2152C89.2817 29.102 88.9217 29.9888 88.4717 30.7869C88.0217 31.585 87.5717 32.2945 86.9417 32.9152C86.4017 33.536 85.7717 33.9794 85.0517 34.3341C84.3317 34.6888 83.5217 34.8662 82.7117 34.8662C81.2717 34.8662 80.1917 34.4228 79.4717 33.536C79.3817 33.3586 79.2917 33.2699 79.2017 33.0926L90.2717 22.0077C90.2717 22.185 90.2717 22.4511 90.2717 22.6284C90.3617 23.5152 90.2717 24.4907 90.1817 25.3775ZM78.4817 29.9888C78.4817 29.102 78.5717 28.1265 78.6617 27.1511C78.8417 26.1756 79.0217 25.2888 79.2917 24.402C79.5617 23.5152 79.9217 22.6284 80.3717 21.8303C80.8217 21.0322 81.2717 20.3228 81.8117 19.702C82.3517 19.0812 82.9817 18.6379 83.7017 18.2831C84.4217 17.9284 85.2317 17.7511 86.0417 17.7511C87.4817 17.7511 88.5617 18.1945 89.2817 19.0812C89.3717 19.2586 89.4617 19.436 89.5517 19.5246L78.4817 30.6982C78.4817 30.4322 78.4817 30.1662 78.4817 29.9888ZM95.4017 16.9529L97.9217 14.4699L96.3917 12.8737L94.0517 15.1794L93.9617 15.0907C93.0617 14.2926 92.0717 13.6718 90.8117 13.2284C89.5517 12.785 88.2017 12.6077 86.6717 12.6077C84.3317 12.6077 82.1717 13.0511 80.3717 14.0265C78.5717 15.002 77.0417 16.2435 75.8717 17.9284C74.6117 19.5246 73.7117 21.3869 73.0817 23.5152C72.4517 25.6435 72.1817 27.8605 72.1817 30.1662C72.1817 31.8511 72.4517 33.2699 72.9017 34.5114C73.0817 34.9548 73.2617 35.3982 73.5317 35.7529L71.0117 38.236L72.5417 39.8322L74.7917 37.5265L74.8817 37.6152C75.7817 38.4133 76.8617 39.0341 78.0317 39.4775C79.2917 39.9209 80.6417 40.0982 82.1717 40.0982C84.5117 40.0982 86.6717 39.6548 88.4717 38.6794C90.2717 37.7039 91.8017 36.4624 92.9717 34.7775C94.1417 33.1812 95.1317 31.319 95.7617 29.1907C96.3917 27.0624 96.6617 24.8454 96.6617 22.5397C96.6617 20.8548 96.3917 19.436 95.9417 18.1945C95.8517 17.6624 95.6717 17.3077 95.4017 16.9529Z" fill="#333333"/>
</svg>
