<svg width="12" height="12" viewBox="0 0 12 12" fill="none" xmlns="http://www.w3.org/2000/svg">
<g clip-path="url(#clip0)">
<path d="M4.60722 3.46875H5.87477C6.09762 3.00626 5.7603 2.46094 5.24083 2.46094C4.72234 2.46094 4.38346 3.00539 4.60722 3.46875Z" fill="black"/>
<path d="M5.24121 1.75781C6.13685 1.75781 6.80859 2.58865 6.61423 3.46875H8.40527V2.69531C8.40527 2.56587 8.30034 2.46094 8.1709 2.46094H7.69786C7.64395 2.27222 7.56877 2.0925 7.47527 1.92436L7.80998 1.58965C7.90151 1.49812 7.90151 1.34972 7.80998 1.2582L7.14708 0.595289C7.05556 0.503766 6.90715 0.503766 6.81563 0.595289L6.48091 0.93C6.31277 0.836484 6.13306 0.76132 5.94434 0.707391V0.234375C5.94434 0.10493 5.83941 0 5.70996 0H4.77246C4.64302 0 4.53809 0.10493 4.53809 0.234375V0.707414C4.34937 0.76132 4.16965 0.836508 4.00151 0.930023L3.6668 0.595289C3.57527 0.503766 3.42687 0.503766 3.33534 0.595289L2.67244 1.2582C2.58091 1.34972 2.58091 1.49812 2.67244 1.58965L3.00717 1.92436C2.91368 2.0925 2.83849 2.27222 2.78459 2.46094H2.31152C2.18208 2.46094 2.07715 2.56587 2.07715 2.69531V3.46875H3.86899C3.67352 2.58635 4.34747 1.75781 5.24121 1.75781Z" fill="black"/>
<path d="M11.1098 7.44516L9.73004 5.38195C9.70653 4.96453 9.62269 4.55953 9.47998 4.17188H1.08784C0.296117 6.32128 1.3787 8.80001 3.6433 9.60352V11.6484C3.6433 11.8425 3.80056 12 3.99486 12H8.00267C8.19673 12 8.35423 11.8425 8.35423 11.6484V9.84375H9.38548C9.57955 9.84375 9.73705 9.68625 9.73705 9.49219V7.99219H10.8175C11.0979 7.99219 11.2659 7.67859 11.1098 7.44516Z" fill="black"/>
</g>
<defs>
<clipPath id="clip0">
<rect width="12" height="12" fill="white"/>
</clipPath>
</defs>
</svg>
