<svg width="9" height="16" viewBox="0 0 9 16" fill="none" xmlns="http://www.w3.org/2000/svg">
<path d="M7.89698 0.00332907L5.92877 0C3.71755 0 2.28856 1.54552 2.28856 3.93762V5.75313H0.309605C0.1386 5.75313 0.00012207 5.89927 0.00012207 6.07954V8.71001C0.00012207 8.89028 0.138758 9.03625 0.309605 9.03625H2.28856V15.6738C2.28856 15.854 2.42704 16 2.59804 16H5.18001C5.35102 16 5.48949 15.8539 5.48949 15.6738V9.03625H7.80335C7.97436 9.03625 8.11283 8.89028 8.11283 8.71001L8.11378 6.07954C8.11378 5.99299 8.0811 5.91009 8.02315 5.84884C7.9652 5.78758 7.88625 5.75313 7.80414 5.75313H5.48949V4.2141C5.48949 3.47438 5.65671 3.09886 6.57079 3.09886L7.89667 3.09836C8.06752 3.09836 8.20599 2.95222 8.20599 2.77211V0.329578C8.20599 0.149642 8.06767 0.00366197 7.89698 0.00332907Z" fill="white"/>
</svg>
