<svg width="95" height="26" viewBox="0 0 95 26" fill="none" xmlns="http://www.w3.org/2000/svg">
<path d="M10.2338 12.3152C10.4211 12.5001 10.2338 12.7774 9.95291 12.7774H7.33109C7.23746 12.7774 7.05018 12.685 7.05018 12.685L3.67927 8.61706L3.492 8.80197C3.30473 8.98687 3.11746 9.26423 2.93018 9.44914V12.5001C2.93018 12.685 2.74291 12.7774 2.55564 12.7774H0.495639C0.308367 12.7774 0.121094 12.5925 0.121094 12.5001V0.943476C0.121094 0.758571 0.308367 0.666118 0.495639 0.666118H2.462C2.64928 0.666118 2.83655 0.851024 2.83655 0.943476V5.75102C4.24109 4.08687 5.64564 2.42272 7.05018 0.758571C7.05018 0.758571 7.23746 0.666118 7.33109 0.666118H9.85927C10.1402 0.666118 10.3275 0.943476 10.1402 1.12838L5.36473 6.86046L10.2338 12.3152ZM16.2265 5.10385C16.2265 3.99442 17.1629 3.06989 18.2865 3.06989C19.4102 3.06989 20.3465 3.99442 20.3465 5.10385C20.3465 6.30574 19.4102 7.13782 18.2865 7.13782C17.1629 7.04536 16.2265 6.21329 16.2265 5.10385ZM22.1256 12.7774C22.3129 12.7774 22.5002 12.5925 22.5002 12.5001V10.5586C22.5002 10.3737 22.3129 10.2812 22.1256 10.2812H14.2602C14.0729 10.2812 13.8856 10.4661 13.8856 10.5586V12.5001C13.8856 12.685 14.0729 12.7774 14.2602 12.7774H22.1256ZM13.4175 5.10385C13.4175 7.60008 15.5711 9.63404 18.2865 9.63404C20.9084 9.63404 23.062 7.60008 23.062 5.10385C23.062 2.60763 20.9084 0.481212 18.2865 0.481212C15.5711 0.481212 13.4175 2.51517 13.4175 5.10385ZM33.6429 2.97744C33.8302 2.97744 34.0174 2.79253 34.0174 2.70008V0.943476C34.0174 0.758571 33.8302 0.666118 33.6429 0.666118H26.6202C26.4329 0.666118 26.2456 0.851024 26.2456 0.943476V2.70008C26.2456 2.88499 26.4329 2.97744 26.6202 2.97744H28.7738V12.5001C28.7738 12.685 28.9611 12.7774 29.1484 12.7774H31.1147C31.302 12.7774 31.4893 12.5925 31.4893 12.5001V2.97744H33.6429ZM37.2947 9.26423C37.2947 11.5756 39.1674 12.8699 41.4147 12.9623C43.5684 12.9623 45.5347 11.668 45.5347 9.26423C45.5347 7.78499 44.7856 6.49065 43.3811 5.84348C42.4447 5.38121 41.5084 5.38121 41.4147 5.38121C40.7593 5.38121 40.0102 5.0114 40.0102 4.17933C40.0102 3.34725 40.6656 2.88499 41.4147 2.88499C42.0702 2.88499 42.7256 3.2548 42.7256 3.99442C42.7256 4.08687 42.9129 4.27178 43.1002 4.27178H45.0665C45.2538 4.27178 45.4411 4.08687 45.4411 3.99442C45.4411 1.868 43.662 0.388759 41.4147 0.388759C39.3547 0.388759 37.2947 1.86801 37.2947 4.27178C37.2947 5.75102 38.0438 6.86046 39.4484 7.50763C40.3847 7.96989 41.3211 7.96989 41.4147 7.96989C42.0702 8.06235 42.8193 8.52461 42.8193 9.26423C42.8193 10.0039 42.1638 10.4661 41.4147 10.4661C40.7593 10.4661 40.1038 10.0963 40.0102 9.35669C40.0102 9.17178 39.8229 9.07933 39.6356 9.07933H37.6693C37.482 8.98687 37.2947 9.17178 37.2947 9.26423ZM53.0256 2.97744H53.962C54.1493 2.97744 54.3365 2.79253 54.3365 2.70008V0.943476C54.3365 0.758571 54.1493 0.666118 53.962 0.666118H49.2802C49.0929 0.666118 48.9056 0.851024 48.9056 0.943476V2.70008C48.9056 2.88499 49.0929 2.97744 49.2802 2.97744H50.2165V10.4661H49.1865C48.9993 10.4661 48.812 10.651 48.812 10.7435V12.5001C48.812 12.685 48.9993 12.7774 49.1865 12.7774H54.0556C54.2429 12.7774 54.4302 12.5925 54.4302 12.5001V10.7435C54.4302 10.5586 54.2429 10.4661 54.0556 10.4661H53.0256V2.97744ZM58.3629 8.89442C58.3629 11.3906 60.5165 12.9623 63.1384 12.9623C65.8538 12.9623 67.9138 11.4831 67.9138 8.89442V1.22084C67.9138 1.03593 67.7265 0.943476 67.5393 0.943476H65.5729C65.3856 0.943476 65.1984 1.12838 65.1984 1.22084V8.89442C65.1984 10.0039 64.1684 10.4661 63.1384 10.4661C62.1084 10.4661 61.2656 9.81895 61.0784 8.80197V1.12838C61.0784 0.943476 60.8911 0.851023 60.7038 0.851023H58.7374C58.5502 0.851023 58.3629 1.03593 58.3629 1.12838V8.89442ZM78.8693 9.17178C78.8693 10.1888 77.8393 10.3737 77.0902 10.3737H75.592V7.96989H77.1838C77.4647 7.96989 78.8693 7.96989 78.8693 9.17178ZM75.592 5.56612V3.2548H77.1838C77.1838 3.2548 78.7756 3.16235 78.7756 4.36423C78.7756 5.47367 77.4647 5.56612 77.1838 5.56612H75.592ZM79.9929 6.67555C80.8356 6.21329 81.4911 5.47367 81.4911 4.27178C81.4911 0.666118 77.1838 0.758571 77.1838 0.758571H73.2511C73.0638 0.758571 72.8765 0.943477 72.8765 1.03593V12.5001C72.8765 12.685 73.0638 12.7774 73.2511 12.7774H77.1838C78.0265 12.7774 81.5847 12.5925 81.5847 9.17178C81.5847 9.26423 81.6784 7.41518 79.9929 6.67555ZM88.6074 9.26423L89.2629 7.41518C89.4502 6.86046 89.5438 6.39819 89.7311 5.75102C89.8247 6.39819 90.012 6.86046 90.1993 7.41518L90.8547 9.26423H88.6074ZM91.4165 11.3906L91.8847 12.5925C91.8847 12.685 92.072 12.7774 92.2593 12.7774H94.4129C94.6938 12.7774 94.7874 12.5925 94.6938 12.3152L89.9184 0.481212C89.8247 0.203854 89.3565 0.203854 89.2629 0.481212L84.4874 12.3152C84.3938 12.5001 84.4874 12.7774 84.862 12.7774H87.0156C87.2029 12.7774 87.3902 12.685 87.3902 12.5925L87.8584 11.3906H91.4165Z" fill="#333333"/>
<path d="M0.683594 20.9133V24.8888H3.0245V23.9643H1.52632V20.9133H0.683594Z" fill="#333333"/>
<path d="M6.01898 21.9303L6.48717 23.4096H5.5508L6.01898 21.9303ZM5.36353 20.9133L3.95898 24.8888H4.98898L5.17626 24.2416H6.67444L6.86171 24.8888H7.89171L6.48717 20.9133H5.36353Z" fill="#333333"/>
<path d="M11.3566 20.9133V23.0398L9.76483 20.9133H9.10938V24.8888H10.0457V22.6699L11.6376 24.8888H12.293V20.9133H11.3566Z" fill="#333333"/>
<path d="M17.4448 22.8546C17.4448 23.964 16.6021 24.8886 15.4784 24.8886H13.793V20.9131H15.3848C16.6021 20.9131 17.4448 21.7452 17.4448 22.8546ZM16.5084 22.8546C16.5084 22.2074 16.0402 21.7452 15.3848 21.7452H14.7293V23.964H15.3848C16.0402 23.964 16.5084 23.5942 16.5084 22.8546Z" fill="#333333"/>
<path d="M18.3809 23.9641L19.2236 23.5019C19.4109 23.8717 19.5981 24.0566 20.0663 24.0566C20.5345 24.0566 20.6281 23.8717 20.6281 23.6868C20.6281 23.4094 20.4409 23.3169 19.7854 23.132C19.2236 22.9471 18.5681 22.6698 18.5681 21.9302C18.5681 21.1905 19.2236 20.7283 19.9727 20.7283C20.6281 20.7283 21.19 21.0056 21.4709 21.6528L20.7218 22.1151C20.6281 21.8377 20.3472 21.6528 19.9727 21.6528C19.6918 21.6528 19.5045 21.8377 19.5045 21.9302C19.5045 22.1151 19.5981 22.2075 20.2536 22.3924C20.909 22.5773 21.5645 22.7622 21.5645 23.5943C21.5645 24.3339 20.909 24.7962 20.0663 24.7962C19.13 24.9811 18.6618 24.6113 18.3809 23.9641Z" fill="#333333"/>
<path d="M22.5957 22.8547C22.5957 21.6528 23.4384 20.7283 24.7493 20.7283C25.4984 20.7283 26.1539 21.0981 26.5284 21.6528L25.6857 22.2075C25.4984 21.9302 25.1239 21.7453 24.7493 21.7453C24.0003 21.7453 23.5321 22.2075 23.5321 22.9471C23.5321 23.6868 24.0003 24.149 24.7493 24.149C25.1239 24.149 25.4984 23.9641 25.6857 23.6868L26.5284 24.149C26.1539 24.7037 25.4984 25.0736 24.7493 25.0736C23.5321 24.9811 22.5957 24.0566 22.5957 22.8547Z" fill="#333333"/>
<path d="M30.0846 24.2414H28.5864L28.3991 24.8886H27.3691L28.7737 20.9131H29.991L31.3955 24.8886H30.3655L30.0846 24.2414ZM29.8037 23.4093L29.3355 21.9301L28.8673 23.4093H29.8037Z" fill="#333333"/>
<path d="M35.4241 22.2074C35.4241 22.9471 34.7686 23.5942 34.0195 23.5942H33.3641V24.8886H32.4277V20.9131H33.9259C34.7686 20.9131 35.4241 21.4678 35.4241 22.2074ZM34.4877 22.2074C34.4877 21.9301 34.3005 21.6527 34.0195 21.6527H33.3641V22.6697H34.0195C34.3005 22.7621 34.4877 22.5772 34.4877 22.2074Z" fill="#333333"/>
<path d="M39.2626 23.964V24.8886H36.7344V20.9131H39.2626V21.7452H37.6707V22.3923H39.0753V23.3169H37.6707V23.964H39.2626Z" fill="#333333"/>
<path d="M47.5026 24.2414H46.0044L45.8171 24.8886H44.7871L46.1917 20.9131H47.4089L48.8135 24.8886H47.7835L47.5026 24.2414ZM47.2217 23.4093L46.7535 21.9301L46.2853 23.4093H47.2217Z" fill="#333333"/>
<path d="M51.2483 23.5942H50.7801V24.8886H49.8438V20.9131H51.4356C52.1847 20.9131 52.8401 21.5603 52.8401 22.2999C52.8401 22.7621 52.5592 23.2244 52.091 23.5018L52.9337 24.981H51.9037L51.2483 23.5942ZM50.7801 22.7621H51.4356C51.7165 22.7621 51.9037 22.5772 51.9037 22.2074C51.9037 21.9301 51.7165 21.6527 51.4356 21.6527H50.7801V22.7621Z" fill="#333333"/>
<path d="M54.0566 22.8547C54.0566 21.6528 54.8994 20.7283 56.2103 20.7283C56.9594 20.7283 57.6148 21.0981 57.9894 21.6528L57.053 22.2075C56.8657 21.9302 56.4912 21.7453 56.1166 21.7453C55.3675 21.7453 54.8994 22.2075 54.8994 22.9471C54.8994 23.6868 55.3675 24.149 56.1166 24.149C56.4912 24.149 56.8657 23.9641 57.053 23.6868L57.8957 24.149C57.5212 24.7037 56.8657 25.0736 56.1166 25.0736C54.8994 24.9811 54.0566 24.0566 54.0566 22.8547Z" fill="#333333"/>
<path d="M62.2969 20.9131V24.8886H61.3606V23.3169H60.0496V24.8886H59.1133V20.9131H60.0496V22.3923H61.3606V20.9131H62.2969Z" fill="#333333"/>
<path d="M64.7313 20.9131H63.7949V24.8886H64.7313V20.9131Z" fill="#333333"/>
<path d="M68.9456 21.7452H67.9156V24.8886H66.9792V21.7452H65.9492V20.9131H68.9456V21.7452Z" fill="#333333"/>
<path d="M72.6903 23.964V24.8886H70.1621V20.9131H72.6903V21.7452H71.0985V22.3923H72.503V23.3169H71.0985V23.964H72.6903Z" fill="#333333"/>
<path d="M73.8145 22.8547C73.8145 21.6528 74.6572 20.7283 75.9681 20.7283C76.7172 20.7283 77.3726 21.0981 77.7472 21.6528L76.9045 22.2075C76.7172 21.9302 76.3426 21.7453 75.9681 21.7453C75.219 21.7453 74.7508 22.2075 74.7508 22.9471C74.7508 23.6868 75.219 24.149 75.9681 24.149C76.3426 24.149 76.7172 23.9641 76.9045 23.6868L77.7472 24.149C77.3726 24.7037 76.7172 25.0736 75.9681 25.0736C74.7508 24.9811 73.8145 24.0566 73.8145 22.8547Z" fill="#333333"/>
<path d="M81.68 21.7452H80.65V24.8886H79.7136V21.7452H78.6836V20.9131H81.68V21.7452Z" fill="#333333"/>
<path d="M82.8965 23.5942V20.9131H83.8328V23.5942C83.8328 23.8716 84.0201 24.1489 84.4883 24.1489C84.9565 24.1489 85.1437 23.8716 85.1437 23.5942V20.9131H86.0801V23.5942C86.0801 24.4263 85.4247 24.981 84.4883 24.981C83.5519 24.981 82.8965 24.4263 82.8965 23.5942Z" fill="#333333"/>
<path d="M88.8889 23.5942H88.4207V24.8886H87.4844V20.9131H89.0762C89.8253 20.9131 90.4807 21.5603 90.4807 22.2999C90.4807 22.7621 90.1998 23.2244 89.7317 23.5018L90.5744 24.981H89.638L88.8889 23.5942ZM88.4207 22.7621H89.0762C89.3571 22.7621 89.5444 22.5772 89.5444 22.2074C89.5444 21.9301 89.3571 21.6527 89.0762 21.6527H88.4207V22.7621Z" fill="#333333"/>
<path d="M94.4129 23.964V24.8886H91.8848V20.9131H94.4129V21.7452H92.8211V22.3923H94.2257V23.3169H92.8211V23.964H94.4129Z" fill="#333333"/>
</svg>
