<svg width="16" height="16" viewBox="0 0 16 16" fill="none" xmlns="http://www.w3.org/2000/svg">
<path d="M2.31113 0.8125C1.21121 0.8125 0.492065 1.53476 0.492065 2.48407C0.492065 3.41242 1.18979 4.15527 2.26892 4.15527H2.28979C3.41122 4.15527 4.10913 3.41242 4.10913 2.48407C4.08816 1.53476 3.41122 0.8125 2.31113 0.8125Z" fill="white"/>
<path d="M0.682007 5.47607H3.89752V15.1501H0.682007V5.47607Z" fill="white"/>
<path d="M11.7906 5.24902C10.0559 5.24902 8.89273 6.87903 8.89273 6.87903V5.47607H5.67712V15.1501H8.89255V9.74774C8.89255 9.45853 8.91351 9.16977 8.99847 8.96295C9.23092 8.38544 9.75992 7.78714 10.6483 7.78714C11.8118 7.78714 12.2772 8.67429 12.2772 9.97479V15.1501H15.4924V9.60318C15.4924 6.63174 13.906 5.24902 11.7906 5.24902Z" fill="white"/>
</svg>
