<svg width="203" height="70" viewBox="0 0 203 70" fill="none" xmlns="http://www.w3.org/2000/svg">
<path d="M87.9805 64.5262H94.9744V56.9431H87.9805V64.5262ZM89.2983 58.0958H93.659V63.3811H89.2983V58.0958Z" />
<path d="M77 64.5262H83.4576V63.3786H78.3204V58.0908H83.4576V56.9431H77V64.5262Z" />
<path d="M156.438 64.5262H162.895V63.3786H157.758V58.0908H162.895V56.9431H156.438V64.5262Z" />
<path d="M99.709 64.5262H101.027V58.0908H105.264V64.5262H106.584V56.9431H99.709V64.5262Z" />
<path d="M183.818 64.5262H190.815V56.9431H183.818V64.5262ZM185.139 58.0958H189.497V63.3811H185.139V58.0958Z" />
<path d="M195.547 56.9431V64.5262H196.867V58.0908H201.101V64.5262H202.422V56.9431H195.547Z" />
<path d="M150.437 63.3786H146.201V56.9431H144.883V64.5262H151.758V56.9431H150.437V63.3786Z" />
<path d="M111.049 61.3073H116.644V63.3786H111.049V64.5262H117.964V60.1621H112.367V58.0908H117.964V56.9431H111.049V61.3073Z" />
<path d="M122.092 58.0908H124.834V64.5262H126.154V58.0908H128.896V56.9431H122.092V58.0908Z" />
<path d="M166.854 58.0908H169.595V64.5262H170.916V58.0908H173.658V56.9431H166.854V58.0908Z" />
<path d="M179.104 56.9431H177.783V64.5111H179.104V56.9431Z" />
<path d="M140.126 61.5489V56.9431H133.211V64.5111H134.531V61.5489H137.334L138.953 64.5262H140.43L138.811 61.5489H140.126ZM134.531 58.0958H138.806V60.4088H134.531V58.0958Z" />
<path d="M137.891 48.693H110.449V21.436H137.891V48.693ZM115.7 43.4706H132.648V26.6584H115.7V43.4706Z" />
<path d="M104.439 48.693H77.1189V43.4707H99.1907V37.6745H77V21.436H104.323V26.6584H82.2486V32.4521H104.439V48.693Z" />
<path d="M202.425 48.693H174.98V32.4521H197.171V26.6634H175.107V21.436H202.425V48.693ZM180.234 43.4706H197.181V37.682H180.234V43.4706Z" />
<path d="M169.611 21.436H143.262V26.6584H153.812V48.693H159.061V26.6584H169.611V21.436Z" />
<path d="M35.0406 35.0949L32.711 11.0216L26.9261 2.56519L22.707 4.96873L35.0406 35.0949Z" />
<path d="M34.3829 12.2547L37.4764 16.7799L38.9739 5.62796L33.4395 2.4895L34.3829 12.2547Z" />
<path d="M42.2185 23.7113L42.2387 7.47796L39.6536 6.01318L38.0879 17.6735L42.2185 23.7113Z" />
<path d="M37.9507 18.6853L36.2383 31.4455L39.4127 64.2646L42.1723 62.6941L42.2153 24.9194L37.9507 18.6853Z" />
<path d="M32.5773 9.61214L31.7982 1.55837L30.2426 0.67749L27.5234 2.22532L32.5773 9.61214Z" />
<path d="M37.3424 17.7916L34.5195 13.6641L35.9335 28.2791L37.3424 17.7916Z" />
<path d="M55.8682 15.2045L54.9197 14.6685L46.0641 33.4942L46.0312 60.4969L51.2621 57.5196L55.8682 15.2045Z" />
<path d="M56.5142 15.572L51.9941 57.1018L60.5487 52.2293L60.5158 17.8422L56.5142 15.572Z" />
<path d="M35.2831 37.594L22.0719 5.33105L0 17.9L0.0328827 52.2871L30.3077 69.4517L37.9441 65.1027L35.2831 37.594Z" />
<path d="M46.0684 29.0974L53.2899 13.7449L46.0911 9.6626L46.0684 29.0974Z" />
</svg>
