<svg width="5" height="8" viewBox="0 0 5 8" fill="none" xmlns="http://www.w3.org/2000/svg">
<path d="M2.75 6.95C2.61667 7.08333 2.45 7.15 2.25 7.15C2.05 7.15 1.88333 7.08333 1.75 6.95C1.61667 6.81667 1.55 6.65 1.55 6.45C1.55 6.25 1.61667 6.08333 1.75 5.95C1.88333 5.81667 2.05 5.75 2.25 5.75C2.45 5.75 2.61667 5.81667 2.75 5.95C2.88333 6.08333 2.95 6.25 2.95 6.45C2.95 6.65 2.88333 6.81667 2.75 6.95ZM1.65 4.9V4.5C1.65 4.18 1.70333 3.90333 1.81 3.67C1.91667 3.43667 2.04667 3.25667 2.2 3.13C2.35333 2.99667 2.50333 2.87667 2.65 2.77C2.80333 2.65667 2.93333 2.52667 3.04 2.38C3.14667 2.22667 3.2 2.05 3.2 1.85C3.2 1.61 3.12 1.41667 2.96 1.27C2.8 1.12333 2.56333 1.05 2.25 1.05C1.96333 1.05 1.72333 1.14333 1.53 1.33C1.33667 1.51667 1.22667 1.74 1.2 2H0C0.0733333 1.36 0.306667 0.866667 0.7 0.52C1.1 0.173333 1.61667 0 2.25 0C2.90333 0 3.43333 0.163333 3.84 0.49C4.24667 0.816667 4.45 1.25333 4.45 1.8C4.45 2.09333 4.39333 2.35333 4.28 2.58C4.16667 2.8 4.03 2.98 3.87 3.12C3.71 3.25333 3.54667 3.38333 3.38 3.51C3.22 3.63 3.08333 3.77333 2.97 3.94C2.85667 4.10667 2.8 4.29333 2.8 4.5V4.9H1.65Z" fill="#B3B3B3"/>
</svg>
