<svg width="31" height="22" viewBox="0 0 31 22" fill="none" xmlns="http://www.w3.org/2000/svg">
<path fill-rule="evenodd" clip-rule="evenodd" d="M2.87697 20.068C2.54431 20.7329 3.0278 21.5154 3.77129 21.5154H8.61129L12.9169 12.9092L12.9169 0.999999C12.9169 0.447714 12.4692 0 11.9169 0L1 0C0.447716 0 0 0.447715 0 1L0 11.9092C0 12.4615 0.447715 12.9092 1 12.9092H6.45847L2.87697 20.068ZM20.1 20.068C19.7674 20.7329 20.2509 21.5154 20.9943 21.5154H25.8343L30.14 12.9092V0.999999C30.14 0.447714 29.6923 0 29.14 0L18.2231 0C17.6708 0 17.223 0.447715 17.223 1V11.9092C17.223 12.4615 17.6708 12.9092 18.223 12.9092L23.6815 12.9092L20.1 20.068Z" fill="#EC5629"/>
</svg>
