<svg width="16" height="16" viewBox="0 0 16 16" fill="none" xmlns="http://www.w3.org/2000/svg">
<path d="M12.7408 5.36057C14.2187 5.36057 15.4211 4.15817 15.4211 2.68026C15.4211 1.20236 14.2187 0 12.7408 0C11.2629 0 10.0605 1.20236 10.0605 2.68031C10.0605 2.95859 10.1032 3.22713 10.1823 3.47969L4.6184 6.87439C4.1901 6.5072 3.63441 6.28464 3.02737 6.28464C1.67737 6.28464 0.579102 7.38292 0.579102 8.73291C0.579102 10.0829 1.67742 11.1812 3.02737 11.1812C3.50782 11.1812 3.95603 11.0415 4.33456 10.8014L8.82286 13.3692C8.79709 13.5041 8.78306 13.6431 8.78306 13.7855C8.78306 15.0066 9.77654 16.0001 10.9976 16.0001C12.2188 16.0001 13.2122 15.0066 13.2122 13.7855C13.2122 12.5643 12.2188 11.5709 10.9976 11.5709C10.3959 11.5709 9.84983 11.8124 9.45029 12.2032L5.23467 9.79151C5.38902 9.47096 5.47559 9.11188 5.47559 8.73295C5.47559 8.46865 5.43296 8.2142 5.35513 7.97553L10.8786 4.60545C11.3613 5.07236 12.0178 5.36057 12.7408 5.36057Z" fill="white"/>
</svg>
