<svg width="99" height="37" viewBox="0 0 99 37" fill="none" xmlns="http://www.w3.org/2000/svg">
<path d="M49.035 5.94409C48.7564 7.14815 48.3849 7.98173 47.8277 8.25959C47.4562 8.44483 46.9919 8.44483 46.3418 8.44483C45.5988 8.44483 44.5772 8.35221 43.6485 9.00054C43.0913 9.37102 42.627 10.0194 42.4412 10.7603L41.4197 9.83412L39.5623 11.2234C36.869 9.83412 33.6186 9.2784 30.3681 10.0194C23.0314 11.5939 18.3879 18.8182 20.0595 26.1352C20.8025 29.6548 22.9385 32.7112 26.0032 34.6562C28.2321 36.0455 30.7396 36.7865 33.2471 36.7865C34.2687 36.7865 35.1974 36.6939 36.2189 36.5086C43.5557 34.9341 48.1992 27.7097 46.5275 20.3928C46.2489 19.1887 45.8774 18.0773 45.3202 17.0585L46.5275 14.3725L44.4844 12.5201C44.5772 11.6865 44.763 11.1308 45.0416 10.8529C45.3202 10.6677 45.6917 10.6677 46.2489 10.6677C46.9919 10.6677 47.9206 10.7603 48.9421 10.2046C50.1494 9.55626 50.9853 8.25959 51.3568 6.31457L49.035 5.94409ZM35.6617 34.2857C32.6899 34.9341 29.718 34.3784 27.1177 32.8038C24.5173 31.2293 22.8456 28.6359 22.1956 25.7647C20.8954 19.6518 24.703 13.6315 30.8325 12.3349C31.6683 12.1496 32.5041 12.057 33.2471 12.057C38.4478 12.057 43.0913 15.6692 44.2986 20.9485C45.5988 26.8762 41.7911 32.8964 35.6617 34.2857Z" fill="#333333"/>
<path d="M45.8854 2.56821L44.6855 4.44165L46.9554 5.88751L48.1552 4.01407L45.8854 2.56821Z" fill="#333333"/>
<path d="M49.9812 -6.87902e-05L47.8047 0.478516L48.4445 3.3727L50.621 2.89411L49.9812 -6.87902e-05Z" fill="#333333"/>
<path d="M52.5544 0.792479L51.0547 3.13428L52.9332 4.33085L54.4329 1.98905L52.5544 0.792479Z" fill="#333333"/>
<path d="M56.9117 3.87682L53.0117 4.73389L53.4914 6.90475L57.3913 6.04768L56.9117 3.87682Z" fill="#333333"/>
<path d="M17.0881 25.394C16.7166 24.6531 16.2523 24.0974 15.695 23.6343C15.3236 23.2638 14.8592 22.9859 14.3949 22.8007C13.4662 22.3376 12.4446 21.9671 11.423 21.5966C10.7729 21.4114 10.1228 21.3188 9.56562 21.1335C8.82266 20.9483 8.0797 20.7631 7.42961 20.5778C6.87239 20.3926 6.31517 20.1147 5.66508 19.9295C4.92211 19.6516 4.17915 19.1885 3.7148 18.5402C3.52906 18.2623 3.43619 17.9845 3.25045 17.7066C3.06471 17.1509 3.15758 16.6878 3.15758 16.1321C3.15758 15.9468 3.15758 15.7616 3.25045 15.5763C3.43619 14.7428 3.99341 14.0018 4.6435 13.5387C5.57221 12.8904 6.68665 12.6125 7.80109 12.5199C8.45118 12.5199 9.10127 12.5199 9.75136 12.6125C10.2157 12.7051 10.6801 12.7978 11.2373 12.983C11.8874 13.1682 12.5375 13.4461 13.0947 13.8166C13.7448 14.187 14.302 14.5575 14.8592 14.928C14.9521 15.0206 15.1378 15.1132 15.3236 15.2059C15.695 14.3723 16.0665 13.5387 16.438 12.7051C15.6022 12.1494 14.8592 11.5937 14.0234 11.2232C13.2804 10.9454 12.5375 10.6675 11.7945 10.4823C11.0515 10.297 10.3086 10.2044 9.56562 10.1118C8.54405 10.1118 7.52248 10.0192 6.50091 10.2044C5.66508 10.3896 4.73637 10.6675 3.90054 11.038C2.97184 11.5011 2.22888 12.1494 1.57879 12.983C0.835831 13.9092 0.46435 15.0206 0.37148 16.2247C0.37148 17.0583 0.37148 17.7992 0.557221 18.5402C0.650091 19.0959 0.928701 19.6516 1.30018 20.2073C1.57879 20.6704 1.95027 21.0409 2.32175 21.3188C2.69323 21.5966 3.15758 21.8745 3.62193 22.1523C4.45776 22.6154 5.47934 22.9859 6.40804 23.2638C7.52248 23.5416 8.63692 23.7269 9.75136 24.0974C10.8658 24.3752 11.9802 24.6531 13.0947 25.3014C13.4662 25.4867 13.8376 25.7645 14.1163 26.0424C14.5806 26.5055 14.8592 27.0612 14.9521 27.8022C14.9521 28.4505 14.9521 29.0062 14.8592 29.5619C14.5806 30.3955 14.0234 31.1365 13.1876 31.6922C12.2589 32.3405 11.1444 32.5258 10.03 32.6184C9.37988 32.6184 8.63692 32.6184 7.98683 32.5258C7.42961 32.4331 6.96526 32.3405 6.40804 32.1553C5.47934 31.97 4.64351 31.5996 3.90054 31.1365C2.97184 30.5807 2.13601 29.9324 1.30018 29.2841C1.30018 29.2841 1.20731 29.2841 1.11444 29.1915C0.742961 30.025 0.37148 30.8586 0 31.7848C0.0928701 31.8774 0.18574 31.97 0.18574 31.97C0.835831 32.4331 1.57879 32.9889 2.32175 33.3593C2.97184 33.7298 3.62193 34.1003 4.36489 34.2855C5.10786 34.5634 5.85082 34.7486 6.68665 34.8413C7.33674 34.9339 7.98683 35.0265 8.63692 35.0265C9.47275 35.0265 10.3086 35.1191 11.1444 34.9339C11.5159 34.8413 11.8874 34.8413 12.166 34.7486C12.6303 34.656 13.0947 34.4708 13.4662 34.2855C14.302 34.0077 15.045 33.5446 15.6022 32.9889C16.3451 32.3405 16.9024 31.5996 17.2738 30.6734C17.5524 30.1177 17.6453 29.4693 17.7382 28.9136C17.7382 28.3579 17.7382 27.7095 17.7382 27.1538C17.4596 26.5055 17.3667 25.9498 17.0881 25.394Z" fill="#333333"/>
<path d="M71.5094 18.4475C71.2307 17.614 70.9521 16.873 70.5807 16.132C70.1163 15.3911 69.652 14.6501 69.0019 14.0018C68.5375 13.5387 68.0732 13.0756 67.5159 12.6125C66.4015 11.7789 65.2871 11.1306 63.9869 10.7601C63.151 10.4822 62.2223 10.297 61.2936 10.1118C60.5507 10.0191 59.8077 9.92651 59.0648 9.92651C56.9287 9.92651 54.8856 9.92651 52.8425 9.92651C52.7496 9.92651 52.6567 9.92651 52.471 9.92651C52.0995 10.7601 51.728 11.6863 51.2637 12.5199C51.3565 12.5199 51.5423 12.5199 51.6352 12.5199C53.864 12.5199 56.0929 12.5199 58.4147 12.5199C59.1576 12.5199 59.9935 12.5199 60.7364 12.6125C61.2936 12.7051 61.9437 12.7977 62.501 12.983C63.3368 13.1682 63.9869 13.5387 64.7298 13.9092C65.2871 14.2796 65.9371 14.7427 66.4015 15.2058C66.5872 15.3911 66.773 15.5763 66.9587 15.7616C67.4231 16.3173 67.7945 16.873 68.166 17.5213C68.4446 18.0771 68.6304 18.6328 68.8161 19.1885C69.0947 20.0221 69.1876 20.8556 69.2805 21.6892C69.2805 22.1523 69.2805 22.5228 69.2805 22.9859C69.2805 23.449 69.1876 24.0047 69.0947 24.4678C68.909 25.4866 68.4446 26.4128 67.8874 27.339C67.5159 27.8947 67.1445 28.4505 66.6801 28.9136C66.4015 29.1914 66.03 29.4693 65.6585 29.7471C65.0084 30.2102 64.3584 30.5807 63.5225 30.9512C62.9653 31.1364 62.3152 31.4143 61.6651 31.5069C61.015 31.5995 60.3649 31.6922 59.8077 31.6922C57.5788 31.6922 55.2571 31.6922 52.9353 31.6922C52.8425 31.6922 52.7496 31.6922 52.6567 31.6922C52.2852 32.5257 51.9138 33.4519 51.4494 34.2855C51.6352 34.2855 51.728 34.2855 51.8209 34.3781C54.3284 34.3781 56.743 34.3781 59.1576 34.3781C59.4362 34.3781 59.8077 34.3781 60.0863 34.3781C60.6436 34.3781 61.1079 34.2855 61.6651 34.1929C62.2223 34.1003 62.7796 34.0077 63.3368 33.8224C64.3584 33.5446 65.3799 33.0815 66.3086 32.5257C66.9587 32.1553 67.6088 31.6922 68.166 31.2291C68.6304 30.766 69.1876 30.3029 69.652 29.6545C70.1163 29.0988 70.4878 28.4505 70.8593 27.8947C71.2307 27.1538 71.5094 26.5055 71.6951 25.7645C71.9737 24.9309 72.1594 24.0973 72.1594 23.2638C72.1594 22.3376 72.2523 21.4114 72.0666 20.4852C71.788 19.7442 71.6951 19.0959 71.5094 18.4475Z" fill="#333333"/>
<path d="M87.8561 10.0193H85.2557L92.0353 25.5794H78.1047C78.1047 25.672 74.1113 34.5635 74.1113 34.5635H76.9903L79.8693 28.0801H93.0568L95.9358 34.5635H99.0005L87.8561 10.0193Z" fill="#333333"/>
</svg>
