<svg width="98" height="30" viewBox="0 0 98 30" fill="none" xmlns="http://www.w3.org/2000/svg">
<path d="M15.996 21.0527H21.3281V17.1915H18.8459C17.0992 17.0996 16.0879 16.1803 16.0879 14.4335V8.36593H20.3169V4.4128H16.0879V0H9.46875L9.56068 15.2609C9.56068 16.9157 11.1235 20.8689 15.996 21.0527Z" fill="#333333"/>
<path d="M27.5795 9.28531C27.5795 8.54984 27.9472 8.36597 29.1423 8.36597C30.5213 8.36597 31.9003 8.36597 33.2793 8.36597C34.0148 8.36597 34.8422 8.54984 34.8422 9.28531V9.65304C34.8422 10.3885 34.2906 10.9401 33.2793 11.032H27.8553C27.6714 11.032 27.5795 10.8482 27.5795 10.7562V9.28531ZM47.7128 4.41284C45.5984 4.59671 42.5646 5.79184 42.1049 9.5611V17.1916H29.3262C28.1311 17.0996 27.5795 16.2722 27.5795 15.6287V14.2497H37.876C39.5308 14.2497 40.634 12.411 40.7259 11.032C40.8178 10.2966 40.8178 10.5724 40.7259 8.82564C40.634 6.25151 38.0598 4.50478 35.7615 4.50478H26.5682C25.3731 4.50478 21.4199 5.24024 21.4199 9.19337V16.548C21.8796 19.9496 24.4537 21.0528 26.5682 21.2366H48.2644V11.7675C48.2644 9.74497 49.1838 8.36597 51.0224 8.36597H55.4352V4.41284H47.7128Z" fill="#333333"/>
<path d="M82.1901 15.9045C82.1901 17.0077 80.9949 17.1916 80.6272 17.1916H76.4902C75.7547 17.0996 75.387 16.7319 75.2951 16.3642V14.9852C75.2951 14.5255 75.9386 14.2497 76.4902 14.2497H82.1901V15.9045ZM55.5294 21.0528H61.8728V11.7675C61.8728 8.73371 63.6196 8.36597 64.5389 8.36597C69.7791 8.36597 75.0193 8.36597 80.2595 8.36597C81.6385 8.36597 82.1901 9.28531 82.1901 10.2046V11.032H72.1694C69.7791 11.124 68.9517 12.3191 68.9517 13.5142V18.3867C69.1356 20.1334 70.0549 21.1447 72.1694 21.1447H86.0513C87.6141 21.1447 88.4415 20.3173 88.4415 19.1222V8.54984C88.4415 6.25151 86.7867 4.41284 84.5803 4.41284H61.1374C57.6439 4.41284 55.8052 7.35471 55.4375 9.5611L55.5294 21.0528Z" fill="#333333"/>
<path d="M93.8636 4.41284H89.7266V8.54984H93.8636V4.41284Z" fill="#333333"/>
<path d="M93.8636 8.5498H89.7266V12.6868H93.8636V8.5498Z" fill="#333333"/>
<path d="M97.9983 12.6869H93.8613V16.8239H97.9983V12.6869Z" fill="#333333"/>
<path d="M93.8636 16.9158H89.7266V21.0528H93.8636V16.9158Z" fill="#333333"/>
<path d="M8.27372 4.41284H4.13672V8.54984H8.27372V4.41284Z" fill="#333333"/>
<path d="M8.27372 8.5498H4.13672V12.6868H8.27372V8.5498Z" fill="#333333"/>
<path d="M4.137 0.275879H0V4.41288H4.137V0.275879Z" fill="#333333"/>
<path d="M39.8991 25.006C39.8072 25.006 39.8072 25.006 39.7153 25.006H39.4395V26.2011H39.6233C39.8072 26.2011 39.991 26.2011 40.083 26.1092C40.2668 26.0172 40.2669 25.8334 40.2669 25.5576C40.2669 25.2818 40.1749 25.1899 40.083 25.0979C40.083 25.006 39.9911 25.006 39.8991 25.006Z" fill="#333333"/>
<path d="M47.3455 25.4657C47.2536 25.0979 47.0697 24.9141 46.7939 24.9141C46.5181 24.9141 46.3343 25.0979 46.2423 25.4657C46.2423 25.6495 46.1504 25.7415 46.1504 26.0173C46.1504 26.2011 46.1504 26.2931 46.1504 26.4769C46.1504 26.6608 46.1504 26.8447 46.1504 26.9366C46.1504 27.1205 46.1504 27.3043 46.2423 27.3963C46.2423 27.5801 46.3343 27.6721 46.4262 27.764C46.5181 27.8559 46.6101 27.9479 46.7939 27.9479C46.9778 27.9479 47.0697 27.8559 47.1617 27.764C47.2536 27.6721 47.3455 27.4882 47.3455 27.3963C47.3455 27.2124 47.4375 27.1205 47.4375 26.9366C47.4375 26.8447 47.4375 26.6608 47.4375 26.4769C47.4375 26.2931 47.4375 26.1092 47.4375 26.0173C47.4375 25.7415 47.4375 25.5576 47.3455 25.4657Z" fill="#333333"/>
<path d="M43.3933 25.006C43.3013 25.006 43.3013 25.006 43.1175 25.006H42.9336V26.2011H43.1175C43.2094 26.2011 43.3013 26.2011 43.3933 26.2011C43.4852 26.2011 43.5771 26.2011 43.6691 26.1092C43.8529 26.0172 43.9449 25.8334 43.9449 25.5576C43.9449 25.2818 43.8529 25.1899 43.761 25.0979C43.4852 25.006 43.4852 25.006 43.3933 25.006Z" fill="#333333"/>
<path d="M4.22852 23.2592V29.4187H93.9554V23.2592H4.22852ZM40.818 26.4768C40.5422 26.7526 40.2664 26.8446 39.8067 26.8446H39.439V28.4074C39.439 28.4994 39.439 28.4994 39.347 28.4994H38.7954C38.7035 28.4994 38.7035 28.4994 38.7035 28.4074V24.4543C38.7035 24.3624 38.7035 24.3624 38.7954 24.3624H39.8067C39.8986 24.3624 39.9906 24.3624 39.9906 24.3624C40.0825 24.3624 40.1744 24.3624 40.2664 24.3624C40.4502 24.3624 40.6341 24.4543 40.726 24.5462C40.9099 24.6382 41.0018 24.7301 41.0938 24.914C41.1857 25.0978 41.2776 25.2817 41.2776 25.5575C41.1857 25.9252 41.0018 26.201 40.818 26.4768ZM44.863 28.4074L44.2195 28.5913C44.2195 28.5913 44.1276 28.4994 44.1276 28.4074L43.3002 26.7526H43.0244V28.3155C43.0244 28.4074 43.0244 28.4074 42.9324 28.4074H42.3808C42.2889 28.4074 42.2889 28.4074 42.2889 28.3155V24.4543C42.2889 24.3624 42.2889 24.3624 42.3808 24.3624H43.3921C43.484 24.3624 43.576 24.3624 43.6679 24.3624C43.7598 24.3624 43.8518 24.3624 43.9437 24.3624C44.1276 24.3624 44.3114 24.4543 44.4953 24.6382C44.5872 24.7301 44.6792 24.914 44.7711 25.0978C44.7711 25.1898 44.863 25.3736 44.863 25.5575C44.863 25.7414 44.863 25.8333 44.863 25.9252C44.863 26.0172 44.7711 26.201 44.6792 26.293C44.5872 26.4768 44.4034 26.5688 44.1276 26.6607L44.863 28.4074C44.863 28.3155 44.863 28.4074 44.863 28.4074ZM48.3565 26.6607C48.3565 26.7526 48.3565 26.8446 48.3565 26.9365C48.3565 27.0284 48.3565 27.2123 48.2646 27.3042C48.2646 27.3962 48.1726 27.58 48.1726 27.672C48.0807 27.9478 47.8968 28.1316 47.713 28.3155C47.4372 28.4994 47.1614 28.5913 46.8856 28.5913C46.5178 28.5913 46.242 28.4994 46.0582 28.3155C45.8743 28.1316 45.6904 27.9478 45.5985 27.672C45.5985 27.58 45.5066 27.3962 45.5066 27.3042C45.5066 27.2123 45.5066 27.0284 45.4146 26.9365C45.4146 26.8446 45.4146 26.7526 45.4146 26.6607C45.4146 26.5688 45.4146 26.4768 45.4146 26.4768C45.4146 26.3849 45.4146 26.293 45.4146 26.293C45.4146 26.201 45.4146 26.1091 45.4146 26.0172C45.4146 25.9252 45.4146 25.7414 45.5066 25.6494C45.5066 25.5575 45.5985 25.3736 45.5985 25.2817C45.6904 25.0059 45.8743 24.822 46.0582 24.6382C46.334 24.4543 46.6098 24.3624 46.8856 24.3624C47.2533 24.3624 47.5291 24.4543 47.713 24.6382C47.8968 24.822 48.0807 25.0059 48.1726 25.2817C48.1726 25.3736 48.2646 25.5575 48.2646 25.6494C48.2646 25.7414 48.2645 25.9252 48.3565 26.0172C48.3565 26.1091 48.3565 26.201 48.3565 26.293C48.3565 26.3849 48.3565 26.4768 48.3565 26.4768C48.3565 26.4768 48.3565 26.5688 48.3565 26.6607ZM50.9306 27.3042C50.9306 27.4881 50.9306 27.58 50.9306 27.7639C50.9306 27.9478 50.8387 28.0397 50.7467 28.2235C50.6548 28.4074 50.5629 28.4994 50.379 28.4994C50.1952 28.5913 50.0113 28.5913 49.7355 28.5913C49.4597 28.5913 49.2758 28.5913 49.092 28.4994C48.9081 28.4074 48.8162 28.3155 48.7242 28.2235C48.6323 28.1316 48.6323 28.0397 48.5404 27.8558C48.5404 27.7639 48.5404 27.672 48.5404 27.4881V27.3962C48.5404 27.3042 48.5404 27.3042 48.6323 27.3042H49.1839C49.1839 27.3042 49.1839 27.3042 49.1839 27.3962V27.58V27.672C49.1839 27.7639 49.1839 27.7639 49.1839 27.8558C49.2758 27.9478 49.3678 28.0397 49.4597 28.0397C49.6436 28.0397 49.7355 27.9478 49.7355 27.8558V27.7639C49.7355 27.7639 49.7355 27.7639 49.7355 27.672C49.7355 27.672 49.7355 27.672 49.7355 27.58V24.914H48.9081C48.8162 24.914 48.8162 24.914 48.8162 24.822V24.4543C48.8162 24.3624 48.8162 24.3624 48.9081 24.3624H50.471C50.5629 24.3624 50.5629 24.3624 50.5629 24.4543V27.3042H50.9306ZM54.2402 24.4543L54.1483 24.914C54.1483 24.914 54.1483 24.914 54.1483 25.0059H54.0563H52.8612V26.0172H53.8725C53.9644 26.0172 53.9644 26.0172 53.9644 26.1091V26.5688C53.9644 26.6607 53.9644 26.6607 53.8725 26.6607H52.8612V27.8558H54.1483C54.2402 27.8558 54.2402 27.8558 54.2402 27.9478V28.4074C54.2402 28.4994 54.2402 28.4994 54.1483 28.4994H52.1258C52.0338 28.4994 52.0338 28.4994 52.0338 28.4074V24.4543C52.0338 24.3624 52.0338 24.3624 52.1258 24.3624H54.2402C54.2402 24.3624 54.2402 24.3624 54.2402 24.4543ZM57.3659 28.3155C57.0901 28.5913 56.7224 28.6832 56.3547 28.6832C55.9869 28.6832 55.7111 28.5913 55.5273 28.4994C55.3434 28.4074 55.1595 28.2236 55.0676 27.9478C54.9757 27.7639 54.8837 27.4881 54.8837 27.2123C54.8837 27.0284 54.7918 26.7526 54.7918 26.4768C54.7918 26.0172 54.8837 25.6494 54.9757 25.2817C55.0676 25.0059 55.1595 24.7301 55.3434 24.6382C55.5273 24.4543 55.6192 24.3624 55.895 24.2704C56.0789 24.1785 56.2627 24.1785 56.4466 24.1785C56.6305 24.1785 56.8143 24.1785 56.9063 24.2704C57.0901 24.3624 57.274 24.3624 57.3659 24.5462C57.4579 24.6382 57.4579 24.6382 57.4579 24.7301L57.1821 25.1898C57.1821 25.1898 57.1821 25.1898 57.0901 25.1898C56.9063 25.0059 56.7224 25.0059 56.5385 25.0059C56.3547 25.0059 56.1708 25.0978 56.0789 25.1898C55.895 25.3736 55.8031 25.8333 55.8031 26.5688C55.8031 26.6607 55.8031 26.7526 55.8031 26.8446C55.8031 26.9365 55.8031 27.1204 55.8031 27.2123C55.8031 27.4881 55.895 27.7639 55.9869 27.8558C56.0789 27.9478 56.0789 27.9478 56.1708 28.0397C56.2627 28.1316 56.3547 28.1316 56.5385 28.1316C56.7224 28.1316 56.9063 28.0397 56.9982 27.9478H57.0901C57.0901 27.9478 57.0901 27.9478 57.1821 27.9478L57.3659 28.3155C57.3659 28.2236 57.3659 28.2236 57.3659 28.3155C57.3659 28.2236 57.3659 28.3155 57.3659 28.3155ZM60.2159 24.4543L60.032 25.0059C60.032 25.0978 59.9401 25.0978 59.9401 25.0978H59.2046V28.4074C59.2046 28.4994 59.2046 28.4994 59.1127 28.4994H58.5611C58.4691 28.4994 58.4691 28.4994 58.4691 28.4074V25.0978H57.6417H57.5498V24.4543C57.5498 24.4543 57.5498 24.4543 57.6417 24.4543H60.2159C60.2159 24.3624 60.2159 24.3624 60.2159 24.4543Z" fill="#333333"/>
</svg>
