<svg width="24" height="16" viewBox="0 0 24 16" fill="none" xmlns="http://www.w3.org/2000/svg">
<path d="M22.2836 1.54182C21.6524 0.418909 20.9673 0.212364 19.5724 0.133818C18.1789 0.0392727 14.6749 0 11.6393 0C8.59782 0 5.09236 0.0392728 3.70036 0.132364C2.30836 0.212364 1.62182 0.417454 0.984727 1.54182C0.334545 2.66327 0 4.59491 0 7.99564C0 7.99855 0 8 0 8C0 8.00291 0 8.00436 0 8.00436V8.00727C0 11.3935 0.334545 13.3396 0.984727 14.4495C1.62182 15.5724 2.30691 15.776 3.69891 15.8705C5.09236 15.952 8.59782 16 11.6393 16C14.6749 16 18.1789 15.952 19.5738 15.872C20.9687 15.7775 21.6538 15.5738 22.2851 14.4509C22.9411 13.3411 23.2727 11.3949 23.2727 8.00873C23.2727 8.00873 23.2727 8.00436 23.2727 8.00146C23.2727 8.00146 23.2727 7.99855 23.2727 7.99709C23.2727 4.59491 22.9411 2.66327 22.2836 1.54182ZM8.72727 12.3636V3.63636L16 8L8.72727 12.3636Z" fill="white"/>
</svg>
