<svg width="97" height="33" viewBox="0 0 97 33" fill="none" xmlns="http://www.w3.org/2000/svg">
<g clip-path="url(#clip0)">
<path d="M42.1416 30.6367H45.4942V26.998H42.1416V30.6367ZM42.7733 27.5511H44.8637V30.0872H42.7733V27.5511Z" fill="#EC5629"/>
<path d="M36.8782 30.6367H39.9737V30.086H37.5111V27.5487H39.9737V26.998H36.8782V30.6367Z" fill="#EC5629"/>
<path d="M74.9568 30.6367H78.0523V30.086H75.5897V27.5487H78.0523V26.998H74.9568V30.6367Z" fill="#EC5629"/>
<path d="M47.7639 30.6367H48.3956V27.5487H50.4266V30.6367H51.0595V26.998H47.7639V30.6367Z" fill="#EC5629"/>
<path d="M88.082 30.6367H91.4358V26.998H88.082V30.6367ZM88.715 27.5511H90.8041V30.0872H88.715V27.5511Z" fill="#EC5629"/>
<path d="M93.7043 26.998V30.6367H94.3373V27.5487H96.367V30.6367H96.9999V26.998H93.7043Z" fill="#EC5629"/>
<path d="M72.0806 30.086H70.0497V26.998H69.418V30.6367H72.7135V26.998H72.0806V30.086Z" fill="#EC5629"/>
<path d="M53.1997 29.0921H55.8817V30.086H53.1997V30.6367H56.5147V28.5426H53.8314V27.5487H56.5147V26.998H53.1997V29.0921Z" fill="#EC5629"/>
<path d="M58.4934 27.5487H59.8078V30.6367H60.4407V27.5487H61.7551V26.998H58.4934V27.5487Z" fill="#EC5629"/>
<path d="M79.95 27.5487H81.2643V30.6367H81.8972V27.5487H83.2116V26.998H79.95V27.5487Z" fill="#EC5629"/>
<path d="M85.8219 26.998H85.189V30.6294H85.8219V26.998Z" fill="#EC5629"/>
<path d="M67.1385 29.208V26.998H63.8235V30.6294H64.4564V29.208H65.7999L66.5759 30.6367H67.284L66.508 29.208H67.1385ZM64.4564 27.5511H66.5055V28.661H64.4564V27.5511Z" fill="#EC5629"/>
<path d="M66.0667 23.0394H52.9124V9.96063H66.0667V23.0394ZM55.4295 20.5335H63.5532V12.4665H55.4295V20.5335Z" fill="#EC5629"/>
<path d="M50.0314 23.0394H36.9352V20.5335H47.5154V17.7523H36.8782V9.96063H49.9756V12.4665H39.3941V15.2465H50.0314V23.0394Z" fill="#EC5629"/>
<path d="M97.0013 23.0394H83.8457V15.2465H94.4829V12.4689H83.9063V9.96063H97.0013V23.0394ZM86.3641 20.5335H94.4878V17.756H86.3641V20.5335Z" fill="#EC5629"/>
<path d="M81.2715 9.96063H68.6409V12.4665H73.6982V23.0394H76.2141V12.4665H81.2715V9.96063Z" fill="#EC5629"/>
<path d="M16.7969 16.5144L15.6802 4.96331L12.9072 0.90564L10.8848 2.05894L16.7969 16.5144Z" fill="#EC5629"/>
<path d="M16.4816 5.55522L17.9644 7.72655L18.6822 2.3755L16.0293 0.869568L16.4816 5.55522Z" fill="#EC5629"/>
<path d="M20.2378 11.0522L20.2475 3.26297L19.0083 2.56012L18.2578 8.15512L20.2378 11.0522Z" fill="#EC5629"/>
<path d="M18.1924 8.64075L17.3716 14.7635L18.8933 30.5111L20.2161 29.7576L20.2367 11.6321L18.1924 8.64075Z" fill="#EC5629"/>
<path d="M15.6157 4.28713L15.2422 0.422674L14.4966 0L13.1931 0.742699L15.6157 4.28713Z" fill="#EC5629"/>
<path d="M17.9003 8.21185L16.5471 6.23132L17.2249 13.2441L17.9003 8.21185Z" fill="#EC5629"/>
<path d="M26.7806 6.97042L26.3259 6.7132L22.0809 15.7464L22.0652 28.7031L24.5726 27.2745L26.7806 6.97042Z" fill="#EC5629"/>
<path d="M27.0908 7.14673L24.9241 27.074L29.0248 24.736L29.009 8.23602L27.0908 7.14673Z" fill="#EC5629"/>
<path d="M16.9132 17.7136L10.5803 2.23285L0 8.26381L0.0157625 24.7638L14.5282 32.9999L18.1887 30.9131L16.9132 17.7136Z" fill="#EC5629"/>
<path d="M22.0833 13.6368L25.5449 6.2702L22.0942 4.3114L22.0833 13.6368Z" fill="#EC5629"/>
</g>
<defs>
<clipPath id="clip0">
<rect width="97" height="33" fill="white"/>
</clipPath>
</defs>
</svg>
